<?xml version="1.0"?>
<svg xmlns="http://www.w3.org/2000/svg" xmlns:xlink="http://www.w3.org/1999/xlink" version="1.1" id="Layer_1" x="0px" y="0px" viewBox="0 0 371.648 371.648" style="enable-background:new 0 0 371.648 371.648;" xml:space="preserve" width="512px" height="512px" class=""><g><g>
	<g>
		<path d="M335.312,210.615c0-47.904-22.328-90.433-57.181-117.783l10.743-16.43l27.892,17.995c1.799,1.297,3.709,2.472,6.182,2.472    c1.237,0,1.448,0.014,3.715-0.994c3.011-1.865,4.94-3.952,6.177-6.424c17.308-27.199,9.891-63.054-17.309-80.364    c-12.364-8.655-28.436-11.127-43.273-7.418c-14.837,3.709-27.2,12.364-35.855,25.963c-3.709,6.182-2.473,13.6,3.709,17.309    l27.726,17.888l-10.627,16.252c-21.223-11.525-45.573-18.066-71.499-18.066c-25.553,0-49.574,6.361-70.58,17.579l-9.172-14.026    l26.589-17.154c6.182-3.709,7.418-11.128,3.709-17.309c-7.419-13.6-21.019-22.254-35.855-25.963    C85.567,0.433,70.73,2.906,57.13,11.56c-13.6,7.418-22.255,21.019-25.964,35.854s-1.237,29.672,7.418,43.273    c2.225,3.813,5.862,5.597,9.788,6.563c2.4,0.591,4.125,0.938,7.522-0.381L84.923,78.14l9.194,14.061    c-35.321,27.324-58.005,70.135-58.005,118.414c0,45.927,20.53,86.906,52.936,114.312l-17.281,27.718    c-3.516,5.734-1.805,13.225,3.842,16.88c0.074,0.048,0.147,0.095,0.221,0.143c5.84,3.77,13.636,1.992,17.269-3.935l16.393-26.271    c22.301,13.185,48.347,20.753,76.218,20.753c28.249,0,54.626-7.771,77.127-21.289l16.033,26.163    c3.601,5.875,11.311,7.68,17.142,4.008c0.078-0.049,0.156-0.098,0.233-0.147c5.733-3.616,7.503-11.163,3.961-16.942l-17.018-27.77    C315.128,296.836,335.312,256.157,335.312,210.615z M264.84,32.579c3.709-2.472,8.588-5.168,12.363-6.184    c10.294-2.77,18.913,1.288,26.447,6.056c12.184,7.711,17.18,21.049,13.117,33.509L264.84,32.579z M54.657,65.959    c-1.236-4.945-1.236-8.654,0-13.6c2.473-8.654,5.768-14.555,13.045-19.705c5.046-3.571,12.919-6.258,19.1-6.258    c2.473,0,4.179,0.198,7.538,0.885c5.075,1.037,8.535,2.825,12.244,5.297L54.657,65.959z M198.078,333.649v-8.052    c0-7.418-4.945-12.364-12.364-12.364c-7.418,0-12.364,4.945-12.364,12.364v8.052c-21.565-2.096-41.477-9.623-58.369-21.203    c-0.651-0.619-1.384-1.187-2.213-1.684c-0.239-0.143-0.483-0.266-0.725-0.394c-27.653-20.158-46.618-51.427-50.472-87.389h9.16    c6.182,0,12.364-4.945,12.364-12.364s-4.945-12.364-12.364-12.364h-9.398c0.006,0,0.867-7.417,0.971-8.097    c0.41-2.684,0.908-5.354,1.492-8.005c1.152-5.228,2.64-10.382,4.456-15.419c1.79-4.966,3.898-9.818,6.306-14.516    c2.386-4.655,5.067-9.159,8.02-13.477c2.938-4.296,6.146-8.407,9.599-12.302c3.447-3.889,7.137-7.562,11.041-10.99    c2.474-2.172,5.026-4.257,7.662-6.23c2.684-2.01,5.488-3.813,8.3-5.646c4.151-2.706,8.592-5.056,13.078-7.17    c5.447-2.567,11.08-4.737,16.842-6.487c5.869-1.783,11.87-3.129,17.937-4.029c2.097-0.311,4.203-0.569,6.313-0.775v9.289    c0,7.418,4.945,12.364,12.364,12.364c7.419,0,12.364-6.182,12.364-12.364V85.12c21.112,2.095,40.643,9.491,57.305,20.788    c0.308,0.255,0.667,0.499,1.06,0.732c29.843,20.686,50.245,53.969,53.635,91.612h-9.382c-7.418,0-12.364,4.945-12.364,12.364    c0,7.418,4.945,12.364,12.364,12.364h9.16C303.564,281.704,256.976,327.924,198.078,333.649z" data-original="#000000" class="active-path" data-old_color="#000000" fill="#FFFFFF"/>
	</g>
</g><g>
	<g>
		<path d="M254.949,198.25h-37.064c-3.605-8.911-10.898-16.204-19.809-19.81v-37.062c0-7.418-4.945-12.364-12.364-12.364    c-7.419,0-12.364,4.945-12.364,12.364v37.062c-12.784,5.173-22.255,17.94-22.255,32.173c0.001,18.546,14.838,34.619,34.62,34.619    c15.18,0,27.439-9.469,32.325-22.254h36.911c6.182,0,12.364-4.945,12.364-12.364C267.313,203.196,262.368,198.25,254.949,198.25z     M185.713,219.27c-4.945,0-9.891-4.945-9.891-9.892c0-4.947,3.709-9.892,9.891-9.892s9.891,4.945,9.891,9.892    C195.604,214.325,191.893,219.27,185.713,219.27z" data-original="#000000" class="active-path" data-old_color="#000000" fill="#FFFFFF"/>
	</g>
</g></g> </svg>
